<svg width="23" height="30" viewBox="0 0 23 30" fill="none" xmlns="http://www.w3.org/2000/svg">
<path fill-rule="evenodd" clip-rule="evenodd" d="M17.3935 20.676C20.4681 18.668 22.5 15.1963 22.5 11.25C22.5 5.03681 17.4632 0 11.25 0C5.0368 0 0 5.03681 0 11.25C0 15.1963 2.03188 18.668 5.10652 20.676L10.7248 28.3083C10.9854 28.6624 11.5146 28.6624 11.7752 28.3083L17.3935 20.676Z" fill="url(#paint0_linear_3940_35552)"/>
<path d="M16.3043 28.8586C16.3043 29.4889 14.0413 29.9999 11.2499 29.9999C8.45847 29.9999 6.19556 29.4889 6.19556 28.8586C6.19556 28.2283 8.45847 27.7173 11.2499 27.7173C14.0413 27.7173 16.3043 28.2283 16.3043 28.8586Z" fill="url(#paint1_radial_3940_35552)"/>
<path d="M19.8914 11.4127C19.8914 16.2753 15.9496 20.2171 11.0871 20.2171C6.22456 20.2171 2.28271 16.2753 2.28271 11.4127C2.28271 6.55024 6.22456 2.6084 11.0871 2.6084C15.9496 2.6084 19.8914 6.55024 19.8914 11.4127Z" fill="#FFF3F3"/>
<path d="M6.95206 14V13.1136L9.02308 11.196C9.19922 11.0256 9.34695 10.8722 9.46626 10.7358C9.58748 10.5994 9.67933 10.4659 9.74183 10.3352C9.80433 10.2027 9.83558 10.0597 9.83558 9.90625C9.83558 9.7358 9.79676 9.58902 9.71911 9.46591C9.64145 9.34091 9.53539 9.24527 9.40092 9.17898C9.26645 9.1108 9.11399 9.0767 8.94354 9.0767C8.76551 9.0767 8.6102 9.11269 8.47763 9.18466C8.34505 9.25663 8.24278 9.35985 8.17081 9.49432C8.09884 9.62879 8.06286 9.78883 8.06286 9.97443H6.89524C6.89524 9.59375 6.98142 9.26326 7.15376 8.98295C7.32611 8.70265 7.56759 8.4858 7.8782 8.33239C8.1888 8.17898 8.54676 8.10227 8.95206 8.10227C9.36873 8.10227 9.73142 8.17614 10.0401 8.32386C10.3507 8.4697 10.5922 8.67235 10.7646 8.93182C10.9369 9.19129 11.0231 9.48864 11.0231 9.82386C11.0231 10.0436 10.9795 10.2604 10.8924 10.4744C10.8072 10.6884 10.6547 10.9261 10.435 11.1875C10.2153 11.447 9.90566 11.7585 9.50604 12.1222L8.65661 12.9545V12.9943H11.0998V14H6.95206Z" fill="black"/>
<path d="M14.1205 9.01651L13.7522 9.12072C13.7291 9.05935 13.6949 8.99972 13.6498 8.94182C13.6058 8.88276 13.5455 8.83413 13.4691 8.79591C13.3927 8.7577 13.2948 8.73859 13.1756 8.73859C13.0123 8.73859 12.8762 8.77623 12.7674 8.85149C12.6597 8.92561 12.6058 9.01998 12.6058 9.13462C12.6058 9.23652 12.6429 9.317 12.717 9.37606C12.7911 9.43512 12.9069 9.48433 13.0644 9.5237L13.4604 9.62097C13.699 9.67887 13.8767 9.76746 13.9937 9.88673C14.1106 10.0048 14.1691 10.1571 14.1691 10.3436C14.1691 10.4964 14.1251 10.633 14.0371 10.7535C13.9503 10.8739 13.8287 10.9689 13.6723 11.0383C13.516 11.1078 13.3342 11.1426 13.1269 11.1426C12.8548 11.1426 12.6296 11.0835 12.4513 10.9654C12.2729 10.8473 12.16 10.6747 12.1125 10.4478L12.5016 10.3505C12.5387 10.4941 12.6087 10.6018 12.7118 10.6736C12.816 10.7454 12.9521 10.7813 13.12 10.7813C13.3111 10.7813 13.4628 10.7407 13.5751 10.6597C13.6886 10.5775 13.7453 10.479 13.7453 10.3644C13.7453 10.2718 13.7129 10.1942 13.648 10.1316C13.5832 10.068 13.4836 10.0205 13.3493 9.98921L12.9046 9.88499C12.6603 9.82709 12.4808 9.73735 12.3661 9.61576C12.2527 9.49302 12.1959 9.33958 12.1959 9.15546C12.1959 9.00493 12.2382 8.87176 12.3227 8.75596C12.4084 8.64016 12.5248 8.54926 12.6719 8.48326C12.8201 8.41725 12.988 8.38425 13.1756 8.38425C13.4396 8.38425 13.6469 8.44215 13.7974 8.55795C13.9491 8.67375 14.0568 8.8266 14.1205 9.01651Z" fill="black"/>
<path d="M15.9465 8.41899V8.76638H14.5638V8.41899H15.9465ZM14.9668 7.77979H15.3767V10.3227C15.3767 10.4385 15.3935 10.5254 15.4271 10.5833C15.4619 10.64 15.5059 10.6782 15.5591 10.6979C15.6136 10.7164 15.6709 10.7257 15.7311 10.7257C15.7763 10.7257 15.8133 10.7234 15.8423 10.7187C15.8712 10.7129 15.8944 10.7083 15.9117 10.7048L15.9951 11.0731C15.9673 11.0835 15.9285 11.0939 15.8787 11.1043C15.8289 11.1159 15.7658 11.1217 15.6894 11.1217C15.5736 11.1217 15.4601 11.0968 15.349 11.047C15.2389 10.9972 15.1475 10.9214 15.0745 10.8195C15.0027 10.7176 14.9668 10.589 14.9668 10.4339V7.77979Z" fill="black"/>
<defs>
<linearGradient id="paint0_linear_3940_35552" x1="11.25" y1="0" x2="11.25" y2="28.5738" gradientUnits="userSpaceOnUse">
<stop stop-color="#E3E3E1"/>
<stop offset="0.270833" stop-color="#D1D1D1"/>
<stop offset="0.536458" stop-color="#CDCDCD"/>
<stop offset="1" stop-color="#F8F8F8"/>
</linearGradient>
<radialGradient id="paint1_radial_3940_35552" cx="0" cy="0" r="1" gradientUnits="userSpaceOnUse" gradientTransform="translate(11.2499 28.8586) rotate(90) scale(1.1413 5.05435)">
<stop offset="0.177083" stop-color="#3B3D48" stop-opacity="0.58"/>
<stop offset="1" stop-color="#3B3D48" stop-opacity="0"/>
</radialGradient>
</defs>
</svg>
