<svg width="30" height="30" viewBox="0 0 30 30" fill="none" xmlns="http://www.w3.org/2000/svg">
<circle cx="15" cy="15" r="15" fill="#00549A"/>
<path d="M21.8884 21.3119L18.7038 18.1274C19.6812 17.0128 20.2205 15.6025 20.2205 14.1063C20.2205 12.4731 19.5844 10.9378 18.4297 9.78304C17.2749 8.62828 15.7396 7.99219 14.1064 7.99219C12.4732 7.99219 10.9379 8.62828 9.7831 9.78304C8.62834 10.9378 7.99225 12.4731 7.99225 14.1063C7.99225 15.7395 8.62834 17.2748 9.7831 18.4296C10.9379 19.5844 12.4732 20.2204 14.1064 20.2204C15.6026 20.2204 17.0129 19.6812 18.1274 18.7038L21.312 21.8883C21.3916 21.9679 21.4959 22.0077 21.6002 22.0077C21.7045 22.0077 21.8088 21.9679 21.8884 21.8883C22.0476 21.7291 22.0476 21.4711 21.8884 21.3119V21.3119ZM10.3595 17.8532C9.35877 16.8523 8.80747 15.5216 8.80747 14.1063C8.80747 12.691 9.35877 11.3603 10.3595 10.3594C11.3604 9.35871 12.6911 8.8074 14.1064 8.8074C15.5217 8.8074 16.8524 9.35871 17.8533 10.3594C18.854 11.3603 19.4053 12.691 19.4053 14.1063C19.4053 15.5216 18.854 16.8523 17.8533 17.8532C16.8524 18.8539 15.5217 19.4052 14.1064 19.4052C12.6911 19.4052 11.3604 18.8539 10.3595 17.8532V17.8532Z" fill="#F5F5F5"/>
</svg>
